<mxfile host="app.diagrams.net" agent="Mozilla/5.0 (Windows NT 10.0; Win64; x64) AppleWebKit/537.36 (KHTML, like Gecko) Chrome/135.0.0.0 Safari/537.36 Edg/135.0.0.0" version="26.2.8">
  <diagram name="Page-1" id="I63eQs1ZGegEmC_DcIR5">
    <mxGraphModel dx="2960" dy="2631" grid="1" gridSize="10" guides="1" tooltips="1" connect="1" arrows="1" fold="1" page="1" pageScale="1" pageWidth="850" pageHeight="1100" math="0" shadow="0">
      <root>
        <mxCell id="0" />
        <mxCell id="1" parent="0" />
        <mxCell id="CD2pwI9OwR-Pnxx260fM-1" value="Actor" style="shape=umlActor;verticalLabelPosition=bottom;verticalAlign=top;html=1;outlineConnect=0;" vertex="1" parent="1">
          <mxGeometry x="60" y="570" width="30" height="60" as="geometry" />
        </mxCell>
        <mxCell id="CD2pwI9OwR-Pnxx260fM-124" style="edgeStyle=orthogonalEdgeStyle;rounded=0;orthogonalLoop=1;jettySize=auto;html=1;exitX=1;exitY=0.5;exitDx=0;exitDy=0;entryX=0;entryY=0.5;entryDx=0;entryDy=0;dashed=1;" edge="1" parent="1" source="CD2pwI9OwR-Pnxx260fM-2" target="CD2pwI9OwR-Pnxx260fM-122">
          <mxGeometry relative="1" as="geometry" />
        </mxCell>
        <mxCell id="CD2pwI9OwR-Pnxx260fM-125" value="&amp;lt;&amp;lt;include&amp;gt;&amp;gt;" style="edgeLabel;html=1;align=center;verticalAlign=middle;resizable=0;points=[];" vertex="1" connectable="0" parent="CD2pwI9OwR-Pnxx260fM-124">
          <mxGeometry x="0.0095" y="-2" relative="1" as="geometry">
            <mxPoint as="offset" />
          </mxGeometry>
        </mxCell>
        <mxCell id="CD2pwI9OwR-Pnxx260fM-2" value="Transactions" style="ellipse;whiteSpace=wrap;html=1;" vertex="1" parent="1">
          <mxGeometry x="200" y="560" width="120" height="80" as="geometry" />
        </mxCell>
        <mxCell id="CD2pwI9OwR-Pnxx260fM-3" value="" style="endArrow=classic;html=1;rounded=0;entryX=0;entryY=0.5;entryDx=0;entryDy=0;" edge="1" parent="1" source="CD2pwI9OwR-Pnxx260fM-1" target="CD2pwI9OwR-Pnxx260fM-2">
          <mxGeometry width="50" height="50" relative="1" as="geometry">
            <mxPoint x="400" y="370" as="sourcePoint" />
            <mxPoint x="450" y="320" as="targetPoint" />
          </mxGeometry>
        </mxCell>
        <mxCell id="CD2pwI9OwR-Pnxx260fM-40" style="edgeStyle=orthogonalEdgeStyle;rounded=0;orthogonalLoop=1;jettySize=auto;html=1;exitX=1;exitY=0.5;exitDx=0;exitDy=0;dashed=1;entryX=0;entryY=0.5;entryDx=0;entryDy=0;" edge="1" parent="1" source="CD2pwI9OwR-Pnxx260fM-4" target="CD2pwI9OwR-Pnxx260fM-126">
          <mxGeometry relative="1" as="geometry">
            <mxPoint x="1360" y="600" as="targetPoint" />
          </mxGeometry>
        </mxCell>
        <mxCell id="CD2pwI9OwR-Pnxx260fM-41" value="&amp;lt;&amp;lt;include&amp;gt;&amp;gt;" style="edgeLabel;html=1;align=center;verticalAlign=middle;resizable=0;points=[];" vertex="1" connectable="0" parent="CD2pwI9OwR-Pnxx260fM-40">
          <mxGeometry x="0.0233" y="-3" relative="1" as="geometry">
            <mxPoint as="offset" />
          </mxGeometry>
        </mxCell>
        <mxCell id="CD2pwI9OwR-Pnxx260fM-4" value="Initiate Transaction" style="ellipse;whiteSpace=wrap;html=1;" vertex="1" parent="1">
          <mxGeometry x="1120" y="560" width="120" height="80" as="geometry" />
        </mxCell>
        <mxCell id="CD2pwI9OwR-Pnxx260fM-14" style="edgeStyle=orthogonalEdgeStyle;rounded=0;orthogonalLoop=1;jettySize=auto;html=1;entryX=0;entryY=0.5;entryDx=0;entryDy=0;dashed=1;" edge="1" parent="1" source="CD2pwI9OwR-Pnxx260fM-5" target="CD2pwI9OwR-Pnxx260fM-13">
          <mxGeometry relative="1" as="geometry" />
        </mxCell>
        <mxCell id="CD2pwI9OwR-Pnxx260fM-15" value="&amp;lt;&amp;lt;include&amp;gt;&amp;gt;" style="edgeLabel;html=1;align=center;verticalAlign=middle;resizable=0;points=[];" vertex="1" connectable="0" parent="CD2pwI9OwR-Pnxx260fM-14">
          <mxGeometry x="0.09" y="-2" relative="1" as="geometry">
            <mxPoint as="offset" />
          </mxGeometry>
        </mxCell>
        <mxCell id="CD2pwI9OwR-Pnxx260fM-5" value="View Transactions" style="ellipse;whiteSpace=wrap;html=1;" vertex="1" parent="1">
          <mxGeometry x="440" y="-160" width="120" height="80" as="geometry" />
        </mxCell>
        <mxCell id="CD2pwI9OwR-Pnxx260fM-65" style="edgeStyle=orthogonalEdgeStyle;rounded=0;orthogonalLoop=1;jettySize=auto;html=1;exitX=1;exitY=0.5;exitDx=0;exitDy=0;entryX=0;entryY=0.5;entryDx=0;entryDy=0;dashed=1;" edge="1" parent="1" source="CD2pwI9OwR-Pnxx260fM-6" target="CD2pwI9OwR-Pnxx260fM-64">
          <mxGeometry relative="1" as="geometry" />
        </mxCell>
        <mxCell id="CD2pwI9OwR-Pnxx260fM-66" value="&amp;lt;&amp;lt;include&amp;gt;&amp;gt;" style="edgeLabel;html=1;align=center;verticalAlign=middle;resizable=0;points=[];" vertex="1" connectable="0" parent="CD2pwI9OwR-Pnxx260fM-65">
          <mxGeometry x="-0.0467" y="-1" relative="1" as="geometry">
            <mxPoint as="offset" />
          </mxGeometry>
        </mxCell>
        <mxCell id="CD2pwI9OwR-Pnxx260fM-6" value="Delete Transactions" style="ellipse;whiteSpace=wrap;html=1;" vertex="1" parent="1">
          <mxGeometry x="440" y="1120" width="120" height="80" as="geometry" />
        </mxCell>
        <mxCell id="CD2pwI9OwR-Pnxx260fM-7" value="" style="endArrow=classic;html=1;rounded=0;exitX=1;exitY=0;exitDx=0;exitDy=0;entryX=0;entryY=0.5;entryDx=0;entryDy=0;dashed=1;" edge="1" parent="1" source="CD2pwI9OwR-Pnxx260fM-2" target="CD2pwI9OwR-Pnxx260fM-5">
          <mxGeometry width="50" height="50" relative="1" as="geometry">
            <mxPoint x="400" y="300" as="sourcePoint" />
            <mxPoint x="450" y="250" as="targetPoint" />
          </mxGeometry>
        </mxCell>
        <mxCell id="CD2pwI9OwR-Pnxx260fM-10" value="&amp;lt;&amp;lt;include&amp;gt;&amp;gt;" style="edgeLabel;html=1;align=center;verticalAlign=middle;resizable=0;points=[];" vertex="1" connectable="0" parent="CD2pwI9OwR-Pnxx260fM-7">
          <mxGeometry x="-0.0026" relative="1" as="geometry">
            <mxPoint as="offset" />
          </mxGeometry>
        </mxCell>
        <mxCell id="CD2pwI9OwR-Pnxx260fM-9" value="" style="endArrow=classic;html=1;rounded=0;exitX=1;exitY=1;exitDx=0;exitDy=0;entryX=0;entryY=0.5;entryDx=0;entryDy=0;dashed=1;" edge="1" parent="1" source="CD2pwI9OwR-Pnxx260fM-2" target="CD2pwI9OwR-Pnxx260fM-6">
          <mxGeometry width="50" height="50" relative="1" as="geometry">
            <mxPoint x="400" y="300" as="sourcePoint" />
            <mxPoint x="450" y="250" as="targetPoint" />
          </mxGeometry>
        </mxCell>
        <mxCell id="CD2pwI9OwR-Pnxx260fM-12" value="&amp;lt;&amp;lt;include&amp;gt;&amp;gt;" style="edgeLabel;html=1;align=center;verticalAlign=middle;resizable=0;points=[];" vertex="1" connectable="0" parent="CD2pwI9OwR-Pnxx260fM-9">
          <mxGeometry x="-0.0148" y="-1" relative="1" as="geometry">
            <mxPoint as="offset" />
          </mxGeometry>
        </mxCell>
        <mxCell id="CD2pwI9OwR-Pnxx260fM-13" value="View transaction information" style="ellipse;whiteSpace=wrap;html=1;" vertex="1" parent="1">
          <mxGeometry x="680" y="-160" width="120" height="80" as="geometry" />
        </mxCell>
        <mxCell id="CD2pwI9OwR-Pnxx260fM-16" value="View date" style="ellipse;whiteSpace=wrap;html=1;" vertex="1" parent="1">
          <mxGeometry x="920" y="-340" width="120" height="80" as="geometry" />
        </mxCell>
        <mxCell id="CD2pwI9OwR-Pnxx260fM-17" value="View transaction name" style="ellipse;whiteSpace=wrap;html=1;" vertex="1" parent="1">
          <mxGeometry x="920" y="-250" width="120" height="80" as="geometry" />
        </mxCell>
        <mxCell id="CD2pwI9OwR-Pnxx260fM-18" value="View transaction category" style="ellipse;whiteSpace=wrap;html=1;" vertex="1" parent="1">
          <mxGeometry x="920" y="-160" width="120" height="80" as="geometry" />
        </mxCell>
        <mxCell id="CD2pwI9OwR-Pnxx260fM-19" value="View payment method" style="ellipse;whiteSpace=wrap;html=1;" vertex="1" parent="1">
          <mxGeometry x="920" y="-70" width="120" height="80" as="geometry" />
        </mxCell>
        <mxCell id="CD2pwI9OwR-Pnxx260fM-20" value="View transaction status" style="ellipse;whiteSpace=wrap;html=1;" vertex="1" parent="1">
          <mxGeometry x="920" y="20" width="120" height="80" as="geometry" />
        </mxCell>
        <mxCell id="CD2pwI9OwR-Pnxx260fM-21" value="View transaction amount" style="ellipse;whiteSpace=wrap;html=1;" vertex="1" parent="1">
          <mxGeometry x="920" y="110" width="120" height="80" as="geometry" />
        </mxCell>
        <mxCell id="CD2pwI9OwR-Pnxx260fM-22" value="" style="endArrow=classic;html=1;rounded=0;exitX=1;exitY=0.5;exitDx=0;exitDy=0;entryX=0;entryY=0.5;entryDx=0;entryDy=0;dashed=1;" edge="1" parent="1" source="CD2pwI9OwR-Pnxx260fM-13" target="CD2pwI9OwR-Pnxx260fM-16">
          <mxGeometry width="50" height="50" relative="1" as="geometry">
            <mxPoint x="800" y="100" as="sourcePoint" />
            <mxPoint x="850" y="50" as="targetPoint" />
          </mxGeometry>
        </mxCell>
        <mxCell id="CD2pwI9OwR-Pnxx260fM-32" value="&amp;lt;&amp;lt;include&amp;gt;&amp;gt;" style="edgeLabel;html=1;align=center;verticalAlign=middle;resizable=0;points=[];" vertex="1" connectable="0" parent="CD2pwI9OwR-Pnxx260fM-22">
          <mxGeometry x="0.0267" relative="1" as="geometry">
            <mxPoint as="offset" />
          </mxGeometry>
        </mxCell>
        <mxCell id="CD2pwI9OwR-Pnxx260fM-23" value="" style="endArrow=classic;html=1;rounded=0;exitX=1;exitY=0.5;exitDx=0;exitDy=0;entryX=0;entryY=0.5;entryDx=0;entryDy=0;dashed=1;" edge="1" parent="1" source="CD2pwI9OwR-Pnxx260fM-13" target="CD2pwI9OwR-Pnxx260fM-17">
          <mxGeometry width="50" height="50" relative="1" as="geometry">
            <mxPoint x="800" y="160" as="sourcePoint" />
            <mxPoint x="850" y="110" as="targetPoint" />
          </mxGeometry>
        </mxCell>
        <mxCell id="CD2pwI9OwR-Pnxx260fM-33" value="&amp;lt;&amp;lt;include&amp;gt;&amp;gt;" style="edgeLabel;html=1;align=center;verticalAlign=middle;resizable=0;points=[];" vertex="1" connectable="0" parent="CD2pwI9OwR-Pnxx260fM-23">
          <mxGeometry x="0.0336" y="-3" relative="1" as="geometry">
            <mxPoint x="-1" as="offset" />
          </mxGeometry>
        </mxCell>
        <mxCell id="CD2pwI9OwR-Pnxx260fM-25" value="" style="endArrow=classic;html=1;rounded=0;exitX=1;exitY=0.5;exitDx=0;exitDy=0;entryX=0;entryY=0.5;entryDx=0;entryDy=0;dashed=1;" edge="1" parent="1" source="CD2pwI9OwR-Pnxx260fM-13" target="CD2pwI9OwR-Pnxx260fM-18">
          <mxGeometry width="50" height="50" relative="1" as="geometry">
            <mxPoint x="800" y="160" as="sourcePoint" />
            <mxPoint x="850" y="110" as="targetPoint" />
          </mxGeometry>
        </mxCell>
        <mxCell id="CD2pwI9OwR-Pnxx260fM-34" value="&amp;lt;&amp;lt;include&amp;gt;&amp;gt;" style="edgeLabel;html=1;align=center;verticalAlign=middle;resizable=0;points=[];" vertex="1" connectable="0" parent="CD2pwI9OwR-Pnxx260fM-25">
          <mxGeometry x="-0.0233" y="-4" relative="1" as="geometry">
            <mxPoint as="offset" />
          </mxGeometry>
        </mxCell>
        <mxCell id="CD2pwI9OwR-Pnxx260fM-27" value="" style="endArrow=classic;html=1;rounded=0;exitX=1;exitY=0.5;exitDx=0;exitDy=0;entryX=0;entryY=0.5;entryDx=0;entryDy=0;dashed=1;" edge="1" parent="1" source="CD2pwI9OwR-Pnxx260fM-13" target="CD2pwI9OwR-Pnxx260fM-19">
          <mxGeometry width="50" height="50" relative="1" as="geometry">
            <mxPoint x="800" y="160" as="sourcePoint" />
            <mxPoint x="850" y="110" as="targetPoint" />
          </mxGeometry>
        </mxCell>
        <mxCell id="CD2pwI9OwR-Pnxx260fM-35" value="&amp;lt;&amp;lt;include&amp;gt;&amp;gt;" style="edgeLabel;html=1;align=center;verticalAlign=middle;resizable=0;points=[];" vertex="1" connectable="0" parent="CD2pwI9OwR-Pnxx260fM-27">
          <mxGeometry x="0.0085" y="-2" relative="1" as="geometry">
            <mxPoint y="-1" as="offset" />
          </mxGeometry>
        </mxCell>
        <mxCell id="CD2pwI9OwR-Pnxx260fM-29" value="" style="endArrow=classic;html=1;rounded=0;exitX=1;exitY=0.5;exitDx=0;exitDy=0;entryX=0;entryY=0.5;entryDx=0;entryDy=0;dashed=1;" edge="1" parent="1" source="CD2pwI9OwR-Pnxx260fM-13" target="CD2pwI9OwR-Pnxx260fM-20">
          <mxGeometry width="50" height="50" relative="1" as="geometry">
            <mxPoint x="800" y="160" as="sourcePoint" />
            <mxPoint x="850" y="110" as="targetPoint" />
          </mxGeometry>
        </mxCell>
        <mxCell id="CD2pwI9OwR-Pnxx260fM-36" value="&amp;lt;&amp;lt;include&amp;gt;&amp;gt;" style="edgeLabel;html=1;align=center;verticalAlign=middle;resizable=0;points=[];" vertex="1" connectable="0" parent="CD2pwI9OwR-Pnxx260fM-29">
          <mxGeometry x="-0.0154" y="2" relative="1" as="geometry">
            <mxPoint as="offset" />
          </mxGeometry>
        </mxCell>
        <mxCell id="CD2pwI9OwR-Pnxx260fM-31" value="" style="endArrow=classic;html=1;rounded=0;exitX=1;exitY=0.5;exitDx=0;exitDy=0;entryX=0;entryY=0.5;entryDx=0;entryDy=0;dashed=1;" edge="1" parent="1" source="CD2pwI9OwR-Pnxx260fM-13" target="CD2pwI9OwR-Pnxx260fM-21">
          <mxGeometry width="50" height="50" relative="1" as="geometry">
            <mxPoint x="800" y="160" as="sourcePoint" />
            <mxPoint x="850" y="110" as="targetPoint" />
          </mxGeometry>
        </mxCell>
        <mxCell id="CD2pwI9OwR-Pnxx260fM-37" value="&amp;lt;&amp;lt;include&amp;gt;&amp;gt;" style="edgeLabel;html=1;align=center;verticalAlign=middle;resizable=0;points=[];" vertex="1" connectable="0" parent="CD2pwI9OwR-Pnxx260fM-31">
          <mxGeometry x="-0.0036" relative="1" as="geometry">
            <mxPoint as="offset" />
          </mxGeometry>
        </mxCell>
        <mxCell id="CD2pwI9OwR-Pnxx260fM-48" style="edgeStyle=orthogonalEdgeStyle;rounded=0;orthogonalLoop=1;jettySize=auto;html=1;exitX=1;exitY=0.5;exitDx=0;exitDy=0;entryX=0;entryY=0.5;entryDx=0;entryDy=0;dashed=1;" edge="1" parent="1" source="CD2pwI9OwR-Pnxx260fM-39" target="CD2pwI9OwR-Pnxx260fM-44">
          <mxGeometry relative="1" as="geometry" />
        </mxCell>
        <mxCell id="CD2pwI9OwR-Pnxx260fM-49" value="&amp;lt;&amp;lt;include&amp;gt;&amp;gt;" style="edgeLabel;html=1;align=center;verticalAlign=middle;resizable=0;points=[];" vertex="1" connectable="0" parent="CD2pwI9OwR-Pnxx260fM-48">
          <mxGeometry x="0.02" y="-4" relative="1" as="geometry">
            <mxPoint as="offset" />
          </mxGeometry>
        </mxCell>
        <mxCell id="CD2pwI9OwR-Pnxx260fM-39" value="Enter transaction information" style="ellipse;whiteSpace=wrap;html=1;" vertex="1" parent="1">
          <mxGeometry x="1600" y="560" width="120" height="80" as="geometry" />
        </mxCell>
        <mxCell id="CD2pwI9OwR-Pnxx260fM-42" value="Enter day" style="ellipse;whiteSpace=wrap;html=1;" vertex="1" parent="1">
          <mxGeometry x="1840" y="380" width="120" height="80" as="geometry" />
        </mxCell>
        <mxCell id="CD2pwI9OwR-Pnxx260fM-43" value="Enter transaction name" style="ellipse;whiteSpace=wrap;html=1;" vertex="1" parent="1">
          <mxGeometry x="1840" y="470" width="120" height="80" as="geometry" />
        </mxCell>
        <mxCell id="CD2pwI9OwR-Pnxx260fM-44" value="Select transaction category" style="ellipse;whiteSpace=wrap;html=1;" vertex="1" parent="1">
          <mxGeometry x="1840" y="560" width="120" height="80" as="geometry" />
        </mxCell>
        <mxCell id="CD2pwI9OwR-Pnxx260fM-45" value="select payment method" style="ellipse;whiteSpace=wrap;html=1;" vertex="1" parent="1">
          <mxGeometry x="1840" y="650" width="120" height="80" as="geometry" />
        </mxCell>
        <mxCell id="CD2pwI9OwR-Pnxx260fM-46" value="enter transaction amount" style="ellipse;whiteSpace=wrap;html=1;" vertex="1" parent="1">
          <mxGeometry x="1840" y="740" width="120" height="80" as="geometry" />
        </mxCell>
        <mxCell id="CD2pwI9OwR-Pnxx260fM-47" value="Choose currency" style="ellipse;whiteSpace=wrap;html=1;" vertex="1" parent="1">
          <mxGeometry x="1840" y="830" width="120" height="80" as="geometry" />
        </mxCell>
        <mxCell id="CD2pwI9OwR-Pnxx260fM-50" value="" style="endArrow=classic;html=1;rounded=0;exitX=1;exitY=0.5;exitDx=0;exitDy=0;entryX=0;entryY=0.5;entryDx=0;entryDy=0;dashed=1;" edge="1" parent="1" source="CD2pwI9OwR-Pnxx260fM-39" target="CD2pwI9OwR-Pnxx260fM-42">
          <mxGeometry width="50" height="50" relative="1" as="geometry">
            <mxPoint x="1490" y="580" as="sourcePoint" />
            <mxPoint x="1540" y="530" as="targetPoint" />
          </mxGeometry>
        </mxCell>
        <mxCell id="CD2pwI9OwR-Pnxx260fM-51" value="&amp;lt;&amp;lt;include&amp;gt;&amp;gt;" style="edgeLabel;html=1;align=center;verticalAlign=middle;resizable=0;points=[];" vertex="1" connectable="0" parent="CD2pwI9OwR-Pnxx260fM-50">
          <mxGeometry x="0.0272" y="-2" relative="1" as="geometry">
            <mxPoint as="offset" />
          </mxGeometry>
        </mxCell>
        <mxCell id="CD2pwI9OwR-Pnxx260fM-55" value="" style="endArrow=classic;html=1;rounded=0;exitX=1;exitY=0.5;exitDx=0;exitDy=0;entryX=0;entryY=0.5;entryDx=0;entryDy=0;dashed=1;" edge="1" parent="1" source="CD2pwI9OwR-Pnxx260fM-39" target="CD2pwI9OwR-Pnxx260fM-45">
          <mxGeometry width="50" height="50" relative="1" as="geometry">
            <mxPoint x="1730" y="610" as="sourcePoint" />
            <mxPoint x="1850" y="430" as="targetPoint" />
          </mxGeometry>
        </mxCell>
        <mxCell id="CD2pwI9OwR-Pnxx260fM-56" value="&amp;lt;&amp;lt;include&amp;gt;&amp;gt;" style="edgeLabel;html=1;align=center;verticalAlign=middle;resizable=0;points=[];" vertex="1" connectable="0" parent="CD2pwI9OwR-Pnxx260fM-55">
          <mxGeometry x="0.0272" y="-2" relative="1" as="geometry">
            <mxPoint as="offset" />
          </mxGeometry>
        </mxCell>
        <mxCell id="CD2pwI9OwR-Pnxx260fM-57" value="" style="endArrow=classic;html=1;rounded=0;exitX=1;exitY=0.5;exitDx=0;exitDy=0;entryX=0;entryY=0.5;entryDx=0;entryDy=0;dashed=1;" edge="1" parent="1" source="CD2pwI9OwR-Pnxx260fM-39" target="CD2pwI9OwR-Pnxx260fM-46">
          <mxGeometry width="50" height="50" relative="1" as="geometry">
            <mxPoint x="1630" y="610" as="sourcePoint" />
            <mxPoint x="1750" y="430" as="targetPoint" />
          </mxGeometry>
        </mxCell>
        <mxCell id="CD2pwI9OwR-Pnxx260fM-58" value="&amp;lt;&amp;lt;include&amp;gt;&amp;gt;" style="edgeLabel;html=1;align=center;verticalAlign=middle;resizable=0;points=[];" vertex="1" connectable="0" parent="CD2pwI9OwR-Pnxx260fM-57">
          <mxGeometry x="0.0272" y="-2" relative="1" as="geometry">
            <mxPoint as="offset" />
          </mxGeometry>
        </mxCell>
        <mxCell id="CD2pwI9OwR-Pnxx260fM-59" value="" style="endArrow=classic;html=1;rounded=0;exitX=1;exitY=0.5;exitDx=0;exitDy=0;entryX=0;entryY=0.5;entryDx=0;entryDy=0;dashed=1;" edge="1" parent="1" source="CD2pwI9OwR-Pnxx260fM-39" target="CD2pwI9OwR-Pnxx260fM-47">
          <mxGeometry width="50" height="50" relative="1" as="geometry">
            <mxPoint x="1750" y="630" as="sourcePoint" />
            <mxPoint x="1870" y="450" as="targetPoint" />
          </mxGeometry>
        </mxCell>
        <mxCell id="CD2pwI9OwR-Pnxx260fM-60" value="&amp;lt;&amp;lt;include&amp;gt;&amp;gt;" style="edgeLabel;html=1;align=center;verticalAlign=middle;resizable=0;points=[];" vertex="1" connectable="0" parent="CD2pwI9OwR-Pnxx260fM-59">
          <mxGeometry x="0.0272" y="-2" relative="1" as="geometry">
            <mxPoint as="offset" />
          </mxGeometry>
        </mxCell>
        <mxCell id="CD2pwI9OwR-Pnxx260fM-62" value="" style="endArrow=classic;html=1;rounded=0;exitX=0;exitY=0.5;exitDx=0;exitDy=0;entryX=1;entryY=0.5;entryDx=0;entryDy=0;" edge="1" parent="1" source="CD2pwI9OwR-Pnxx260fM-43" target="CD2pwI9OwR-Pnxx260fM-39">
          <mxGeometry width="50" height="50" relative="1" as="geometry">
            <mxPoint x="1840" y="510" as="sourcePoint" />
            <mxPoint x="1540" y="620" as="targetPoint" />
          </mxGeometry>
        </mxCell>
        <mxCell id="CD2pwI9OwR-Pnxx260fM-63" value="&amp;lt;&amp;lt;extend&amp;gt;&amp;gt;" style="edgeLabel;html=1;align=center;verticalAlign=middle;resizable=0;points=[];" vertex="1" connectable="0" parent="CD2pwI9OwR-Pnxx260fM-62">
          <mxGeometry x="-0.0667" y="2" relative="1" as="geometry">
            <mxPoint as="offset" />
          </mxGeometry>
        </mxCell>
        <mxCell id="CD2pwI9OwR-Pnxx260fM-64" value="&lt;font&gt;&lt;br&gt;&lt;/font&gt;&lt;p data-pm-slice=&quot;1 1 []&quot; style=&quot;&quot;&gt;&lt;font&gt;Choose the only reason to delete a specific transaction&lt;/font&gt;&lt;/p&gt;&lt;font&gt;&lt;br&gt;&lt;/font&gt;" style="ellipse;whiteSpace=wrap;html=1;" vertex="1" parent="1">
          <mxGeometry x="680" y="1120" width="120" height="80" as="geometry" />
        </mxCell>
        <mxCell id="CD2pwI9OwR-Pnxx260fM-67" value="Search transaction" style="ellipse;whiteSpace=wrap;html=1;" vertex="1" parent="1">
          <mxGeometry x="440" y="160" width="120" height="80" as="geometry" />
        </mxCell>
        <mxCell id="CD2pwI9OwR-Pnxx260fM-68" value="" style="endArrow=classic;html=1;rounded=0;exitX=1;exitY=0;exitDx=0;exitDy=0;entryX=0;entryY=0.5;entryDx=0;entryDy=0;dashed=1;" edge="1" parent="1" source="CD2pwI9OwR-Pnxx260fM-2" target="CD2pwI9OwR-Pnxx260fM-67">
          <mxGeometry width="50" height="50" relative="1" as="geometry">
            <mxPoint x="570" y="290" as="sourcePoint" />
            <mxPoint x="620" y="240" as="targetPoint" />
          </mxGeometry>
        </mxCell>
        <mxCell id="CD2pwI9OwR-Pnxx260fM-69" value="&amp;lt;&amp;lt;include&amp;gt;&amp;gt;" style="edgeLabel;html=1;align=center;verticalAlign=middle;resizable=0;points=[];" vertex="1" connectable="0" parent="CD2pwI9OwR-Pnxx260fM-68">
          <mxGeometry x="0.0061" y="-3" relative="1" as="geometry">
            <mxPoint as="offset" />
          </mxGeometry>
        </mxCell>
        <mxCell id="CD2pwI9OwR-Pnxx260fM-70" value="Search by Category" style="ellipse;whiteSpace=wrap;html=1;" vertex="1" parent="1">
          <mxGeometry x="640" y="-30" width="120" height="80" as="geometry" />
        </mxCell>
        <mxCell id="CD2pwI9OwR-Pnxx260fM-71" value="Search by transaction name" style="ellipse;whiteSpace=wrap;html=1;" vertex="1" parent="1">
          <mxGeometry x="640" y="70" width="120" height="80" as="geometry" />
        </mxCell>
        <mxCell id="CD2pwI9OwR-Pnxx260fM-72" value="Search by price range&amp;nbsp;" style="ellipse;whiteSpace=wrap;html=1;" vertex="1" parent="1">
          <mxGeometry x="640" y="250" width="120" height="80" as="geometry" />
        </mxCell>
        <mxCell id="CD2pwI9OwR-Pnxx260fM-73" value="" style="endArrow=classic;html=1;rounded=0;exitX=0;exitY=0.5;exitDx=0;exitDy=0;entryX=1;entryY=0;entryDx=0;entryDy=0;" edge="1" parent="1" source="CD2pwI9OwR-Pnxx260fM-70" target="CD2pwI9OwR-Pnxx260fM-67">
          <mxGeometry width="50" height="50" relative="1" as="geometry">
            <mxPoint x="570" y="220" as="sourcePoint" />
            <mxPoint x="620" y="170" as="targetPoint" />
          </mxGeometry>
        </mxCell>
        <mxCell id="CD2pwI9OwR-Pnxx260fM-76" value="&amp;lt;&amp;lt;extend&amp;gt;&amp;gt;" style="edgeLabel;html=1;align=center;verticalAlign=middle;resizable=0;points=[];" vertex="1" connectable="0" parent="CD2pwI9OwR-Pnxx260fM-73">
          <mxGeometry x="-0.0134" y="5" relative="1" as="geometry">
            <mxPoint as="offset" />
          </mxGeometry>
        </mxCell>
        <mxCell id="CD2pwI9OwR-Pnxx260fM-74" value="" style="endArrow=classic;html=1;rounded=0;exitX=0;exitY=0.5;exitDx=0;exitDy=0;entryX=1;entryY=0;entryDx=0;entryDy=0;" edge="1" parent="1" source="CD2pwI9OwR-Pnxx260fM-71" target="CD2pwI9OwR-Pnxx260fM-67">
          <mxGeometry width="50" height="50" relative="1" as="geometry">
            <mxPoint x="620" y="240" as="sourcePoint" />
            <mxPoint x="550" y="210" as="targetPoint" />
          </mxGeometry>
        </mxCell>
        <mxCell id="CD2pwI9OwR-Pnxx260fM-77" value="&amp;lt;&amp;lt;extend&amp;gt;&amp;gt;" style="edgeLabel;html=1;align=center;verticalAlign=middle;resizable=0;points=[];" vertex="1" connectable="0" parent="CD2pwI9OwR-Pnxx260fM-74">
          <mxGeometry x="-0.035" y="1" relative="1" as="geometry">
            <mxPoint as="offset" />
          </mxGeometry>
        </mxCell>
        <mxCell id="CD2pwI9OwR-Pnxx260fM-75" value="" style="endArrow=classic;html=1;rounded=0;exitX=0;exitY=0;exitDx=0;exitDy=0;entryX=1;entryY=1;entryDx=0;entryDy=0;" edge="1" parent="1" source="CD2pwI9OwR-Pnxx260fM-72" target="CD2pwI9OwR-Pnxx260fM-67">
          <mxGeometry width="50" height="50" relative="1" as="geometry">
            <mxPoint x="570" y="220" as="sourcePoint" />
            <mxPoint x="620" y="170" as="targetPoint" />
            <Array as="points" />
          </mxGeometry>
        </mxCell>
        <mxCell id="CD2pwI9OwR-Pnxx260fM-78" value="&amp;lt;&amp;lt;extend&amp;gt;&amp;gt;" style="edgeLabel;html=1;align=center;verticalAlign=middle;resizable=0;points=[];" vertex="1" connectable="0" parent="CD2pwI9OwR-Pnxx260fM-75">
          <mxGeometry x="-0.038" y="-3" relative="1" as="geometry">
            <mxPoint as="offset" />
          </mxGeometry>
        </mxCell>
        <mxCell id="CD2pwI9OwR-Pnxx260fM-80" style="edgeStyle=orthogonalEdgeStyle;rounded=0;orthogonalLoop=1;jettySize=auto;html=1;exitX=0;exitY=0.5;exitDx=0;exitDy=0;entryX=1;entryY=0.5;entryDx=0;entryDy=0;" edge="1" parent="1" source="CD2pwI9OwR-Pnxx260fM-79" target="CD2pwI9OwR-Pnxx260fM-67">
          <mxGeometry relative="1" as="geometry" />
        </mxCell>
        <mxCell id="CD2pwI9OwR-Pnxx260fM-81" value="&amp;lt;&amp;lt;extend&amp;gt;&amp;gt;" style="edgeLabel;html=1;align=center;verticalAlign=middle;resizable=0;points=[];" vertex="1" connectable="0" parent="CD2pwI9OwR-Pnxx260fM-80">
          <mxGeometry x="-0.035" y="3" relative="1" as="geometry">
            <mxPoint as="offset" />
          </mxGeometry>
        </mxCell>
        <mxCell id="CD2pwI9OwR-Pnxx260fM-79" value="Search by transaction status" style="ellipse;whiteSpace=wrap;html=1;" vertex="1" parent="1">
          <mxGeometry x="640" y="160" width="120" height="80" as="geometry" />
        </mxCell>
        <mxCell id="CD2pwI9OwR-Pnxx260fM-82" value="Search by payment method" style="ellipse;whiteSpace=wrap;html=1;" vertex="1" parent="1">
          <mxGeometry x="520" y="310" width="120" height="80" as="geometry" />
        </mxCell>
        <mxCell id="CD2pwI9OwR-Pnxx260fM-83" value="" style="endArrow=classic;html=1;rounded=0;exitX=0.5;exitY=0;exitDx=0;exitDy=0;entryX=1;entryY=1;entryDx=0;entryDy=0;" edge="1" parent="1" source="CD2pwI9OwR-Pnxx260fM-82" target="CD2pwI9OwR-Pnxx260fM-67">
          <mxGeometry width="50" height="50" relative="1" as="geometry">
            <mxPoint x="570" y="220" as="sourcePoint" />
            <mxPoint x="620" y="170" as="targetPoint" />
          </mxGeometry>
        </mxCell>
        <mxCell id="CD2pwI9OwR-Pnxx260fM-84" value="&amp;lt;&amp;lt;extend&amp;gt;&amp;gt;" style="edgeLabel;html=1;align=center;verticalAlign=middle;resizable=0;points=[];" vertex="1" connectable="0" parent="CD2pwI9OwR-Pnxx260fM-83">
          <mxGeometry x="0.0912" y="-1" relative="1" as="geometry">
            <mxPoint as="offset" />
          </mxGeometry>
        </mxCell>
        <mxCell id="CD2pwI9OwR-Pnxx260fM-86" value="Apply change to budget" style="ellipse;whiteSpace=wrap;html=1;" vertex="1" parent="1">
          <mxGeometry x="680" y="480" width="120" height="80" as="geometry" />
        </mxCell>
        <mxCell id="CD2pwI9OwR-Pnxx260fM-87" value="Apply the change to the user&#39;s bank card" style="ellipse;whiteSpace=wrap;html=1;" vertex="1" parent="1">
          <mxGeometry x="680" y="640" width="120" height="80" as="geometry" />
        </mxCell>
        <mxCell id="CD2pwI9OwR-Pnxx260fM-88" value="" style="endArrow=classic;html=1;rounded=0;exitX=1;exitY=0.5;exitDx=0;exitDy=0;entryX=0;entryY=0.5;entryDx=0;entryDy=0;dashed=1;" edge="1" parent="1" source="CD2pwI9OwR-Pnxx260fM-122" target="CD2pwI9OwR-Pnxx260fM-86">
          <mxGeometry width="50" height="50" relative="1" as="geometry">
            <mxPoint x="560" y="600" as="sourcePoint" />
            <mxPoint x="740" y="550" as="targetPoint" />
          </mxGeometry>
        </mxCell>
        <mxCell id="CD2pwI9OwR-Pnxx260fM-89" value="&amp;lt;&amp;lt;include&amp;gt;&amp;gt;" style="edgeLabel;html=1;align=center;verticalAlign=middle;resizable=0;points=[];" vertex="1" connectable="0" parent="CD2pwI9OwR-Pnxx260fM-88">
          <mxGeometry x="-0.0746" relative="1" as="geometry">
            <mxPoint y="1" as="offset" />
          </mxGeometry>
        </mxCell>
        <mxCell id="CD2pwI9OwR-Pnxx260fM-90" value="" style="endArrow=classic;html=1;rounded=0;exitX=1;exitY=0.5;exitDx=0;exitDy=0;entryX=0;entryY=0.5;entryDx=0;entryDy=0;dashed=1;" edge="1" parent="1" source="CD2pwI9OwR-Pnxx260fM-122" target="CD2pwI9OwR-Pnxx260fM-87">
          <mxGeometry width="50" height="50" relative="1" as="geometry">
            <mxPoint x="560" y="600" as="sourcePoint" />
            <mxPoint x="690" y="530" as="targetPoint" />
          </mxGeometry>
        </mxCell>
        <mxCell id="CD2pwI9OwR-Pnxx260fM-91" value="&amp;lt;&amp;lt;include&amp;gt;&amp;gt;" style="edgeLabel;html=1;align=center;verticalAlign=middle;resizable=0;points=[];" vertex="1" connectable="0" parent="CD2pwI9OwR-Pnxx260fM-90">
          <mxGeometry x="-0.0746" relative="1" as="geometry">
            <mxPoint y="1" as="offset" />
          </mxGeometry>
        </mxCell>
        <mxCell id="CD2pwI9OwR-Pnxx260fM-97" style="edgeStyle=orthogonalEdgeStyle;rounded=0;orthogonalLoop=1;jettySize=auto;html=1;exitX=1;exitY=0.5;exitDx=0;exitDy=0;entryX=0;entryY=0.5;entryDx=0;entryDy=0;dashed=1;" edge="1" parent="1" source="CD2pwI9OwR-Pnxx260fM-92" target="CD2pwI9OwR-Pnxx260fM-4">
          <mxGeometry relative="1" as="geometry" />
        </mxCell>
        <mxCell id="CD2pwI9OwR-Pnxx260fM-98" value="&amp;lt;&amp;lt;include&amp;gt;&amp;gt;" style="edgeLabel;html=1;align=center;verticalAlign=middle;resizable=0;points=[];" vertex="1" connectable="0" parent="CD2pwI9OwR-Pnxx260fM-97">
          <mxGeometry x="-0.06" relative="1" as="geometry">
            <mxPoint as="offset" />
          </mxGeometry>
        </mxCell>
        <mxCell id="CD2pwI9OwR-Pnxx260fM-92" value="&lt;p data-pm-slice=&quot;0 0 []&quot; style=&quot;&quot;&gt;&lt;font&gt;fetch the transaction information&lt;/font&gt;&lt;/p&gt;" style="ellipse;whiteSpace=wrap;html=1;" vertex="1" parent="1">
          <mxGeometry x="880" y="560" width="120" height="80" as="geometry" />
        </mxCell>
        <mxCell id="CD2pwI9OwR-Pnxx260fM-93" value="" style="endArrow=classic;html=1;rounded=0;exitX=1;exitY=0.5;exitDx=0;exitDy=0;entryX=0;entryY=0.5;entryDx=0;entryDy=0;dashed=1;" edge="1" parent="1" source="CD2pwI9OwR-Pnxx260fM-86" target="CD2pwI9OwR-Pnxx260fM-92">
          <mxGeometry width="50" height="50" relative="1" as="geometry">
            <mxPoint x="950" y="600" as="sourcePoint" />
            <mxPoint x="1000" y="550" as="targetPoint" />
          </mxGeometry>
        </mxCell>
        <mxCell id="CD2pwI9OwR-Pnxx260fM-94" value="&amp;lt;&amp;lt;include&amp;gt;&amp;gt;" style="edgeLabel;html=1;align=center;verticalAlign=middle;resizable=0;points=[];" vertex="1" connectable="0" parent="CD2pwI9OwR-Pnxx260fM-93">
          <mxGeometry x="-0.0125" relative="1" as="geometry">
            <mxPoint as="offset" />
          </mxGeometry>
        </mxCell>
        <mxCell id="CD2pwI9OwR-Pnxx260fM-95" value="" style="endArrow=classic;html=1;rounded=0;exitX=1;exitY=0.5;exitDx=0;exitDy=0;entryX=0;entryY=0.5;entryDx=0;entryDy=0;dashed=1;" edge="1" parent="1" source="CD2pwI9OwR-Pnxx260fM-87" target="CD2pwI9OwR-Pnxx260fM-92">
          <mxGeometry width="50" height="50" relative="1" as="geometry">
            <mxPoint x="950" y="600" as="sourcePoint" />
            <mxPoint x="1000" y="550" as="targetPoint" />
          </mxGeometry>
        </mxCell>
        <mxCell id="CD2pwI9OwR-Pnxx260fM-96" value="&amp;lt;&amp;lt;include&amp;gt;&amp;gt;" style="edgeLabel;html=1;align=center;verticalAlign=middle;resizable=0;points=[];" vertex="1" connectable="0" parent="CD2pwI9OwR-Pnxx260fM-95">
          <mxGeometry x="0.015" y="-4" relative="1" as="geometry">
            <mxPoint as="offset" />
          </mxGeometry>
        </mxCell>
        <mxCell id="CD2pwI9OwR-Pnxx260fM-99" value="&lt;p data-pm-slice=&quot;0 0 []&quot; style=&quot;&quot;&gt;&lt;font&gt;Some system problems occurred&lt;/font&gt;&lt;/p&gt;" style="ellipse;whiteSpace=wrap;html=1;" vertex="1" parent="1">
          <mxGeometry x="920" y="1000" width="120" height="80" as="geometry" />
        </mxCell>
        <mxCell id="CD2pwI9OwR-Pnxx260fM-100" value="User entered the incorrect amount of cost." style="ellipse;whiteSpace=wrap;html=1;" vertex="1" parent="1">
          <mxGeometry x="920" y="1120" width="120" height="80" as="geometry" />
        </mxCell>
        <mxCell id="CD2pwI9OwR-Pnxx260fM-101" value="&lt;font&gt;&lt;br&gt;&lt;/font&gt;&lt;p data-pm-slice=&quot;0 0 []&quot; style=&quot;&quot;&gt;&lt;font&gt;User does not want to track this transaction&lt;/font&gt;&lt;/p&gt;&lt;font&gt;&lt;br&gt;&lt;/font&gt;" style="ellipse;whiteSpace=wrap;html=1;" vertex="1" parent="1">
          <mxGeometry x="920" y="1210" width="120" height="80" as="geometry" />
        </mxCell>
        <mxCell id="CD2pwI9OwR-Pnxx260fM-103" value="" style="endArrow=classic;html=1;rounded=0;exitX=1;exitY=0.5;exitDx=0;exitDy=0;entryX=0;entryY=0.5;entryDx=0;entryDy=0;dashed=1;" edge="1" parent="1" source="CD2pwI9OwR-Pnxx260fM-64" target="CD2pwI9OwR-Pnxx260fM-99">
          <mxGeometry width="50" height="50" relative="1" as="geometry">
            <mxPoint x="920" y="1080" as="sourcePoint" />
            <mxPoint x="970" y="1030" as="targetPoint" />
          </mxGeometry>
        </mxCell>
        <mxCell id="CD2pwI9OwR-Pnxx260fM-104" value="&amp;lt;&amp;lt;include&amp;gt;&amp;gt;" style="edgeLabel;html=1;align=center;verticalAlign=middle;resizable=0;points=[];" vertex="1" connectable="0" parent="CD2pwI9OwR-Pnxx260fM-103">
          <mxGeometry x="-0.0701" y="-3" relative="1" as="geometry">
            <mxPoint as="offset" />
          </mxGeometry>
        </mxCell>
        <mxCell id="CD2pwI9OwR-Pnxx260fM-105" value="" style="endArrow=classic;html=1;rounded=0;exitX=1;exitY=0.5;exitDx=0;exitDy=0;entryX=0;entryY=0.5;entryDx=0;entryDy=0;dashed=1;" edge="1" parent="1" source="CD2pwI9OwR-Pnxx260fM-64" target="CD2pwI9OwR-Pnxx260fM-100">
          <mxGeometry width="50" height="50" relative="1" as="geometry">
            <mxPoint x="820" y="1090" as="sourcePoint" />
            <mxPoint x="930" y="970" as="targetPoint" />
          </mxGeometry>
        </mxCell>
        <mxCell id="CD2pwI9OwR-Pnxx260fM-106" value="&amp;lt;&amp;lt;include&amp;gt;&amp;gt;" style="edgeLabel;html=1;align=center;verticalAlign=middle;resizable=0;points=[];" vertex="1" connectable="0" parent="CD2pwI9OwR-Pnxx260fM-105">
          <mxGeometry x="-0.0701" y="-3" relative="1" as="geometry">
            <mxPoint as="offset" />
          </mxGeometry>
        </mxCell>
        <mxCell id="CD2pwI9OwR-Pnxx260fM-107" value="" style="endArrow=classic;html=1;rounded=0;exitX=1;exitY=0.5;exitDx=0;exitDy=0;entryX=0;entryY=0.5;entryDx=0;entryDy=0;dashed=1;" edge="1" parent="1" source="CD2pwI9OwR-Pnxx260fM-64" target="CD2pwI9OwR-Pnxx260fM-101">
          <mxGeometry width="50" height="50" relative="1" as="geometry">
            <mxPoint x="830" y="1100" as="sourcePoint" />
            <mxPoint x="940" y="980" as="targetPoint" />
          </mxGeometry>
        </mxCell>
        <mxCell id="CD2pwI9OwR-Pnxx260fM-108" value="&amp;lt;&amp;lt;include&amp;gt;&amp;gt;" style="edgeLabel;html=1;align=center;verticalAlign=middle;resizable=0;points=[];" vertex="1" connectable="0" parent="CD2pwI9OwR-Pnxx260fM-107">
          <mxGeometry x="-0.0701" y="-3" relative="1" as="geometry">
            <mxPoint as="offset" />
          </mxGeometry>
        </mxCell>
        <mxCell id="CD2pwI9OwR-Pnxx260fM-109" value="check transaction is exist or not" style="ellipse;whiteSpace=wrap;html=1;" vertex="1" parent="1">
          <mxGeometry x="1360" y="1120" width="120" height="80" as="geometry" />
        </mxCell>
        <mxCell id="CD2pwI9OwR-Pnxx260fM-110" value="" style="endArrow=classic;html=1;rounded=0;exitX=1;exitY=0.5;exitDx=0;exitDy=0;entryX=0;entryY=0.5;entryDx=0;entryDy=0;dashed=1;" edge="1" parent="1" source="CD2pwI9OwR-Pnxx260fM-99" target="CD2pwI9OwR-Pnxx260fM-119">
          <mxGeometry width="50" height="50" relative="1" as="geometry">
            <mxPoint x="970" y="1210" as="sourcePoint" />
            <mxPoint x="1020" y="1160" as="targetPoint" />
          </mxGeometry>
        </mxCell>
        <mxCell id="CD2pwI9OwR-Pnxx260fM-114" value="&amp;lt;&amp;lt;include&amp;gt;&amp;gt;" style="edgeLabel;html=1;align=center;verticalAlign=middle;resizable=0;points=[];" vertex="1" connectable="0" parent="CD2pwI9OwR-Pnxx260fM-110">
          <mxGeometry x="-0.0462" y="2" relative="1" as="geometry">
            <mxPoint as="offset" />
          </mxGeometry>
        </mxCell>
        <mxCell id="CD2pwI9OwR-Pnxx260fM-111" value="" style="endArrow=classic;html=1;rounded=0;exitX=1;exitY=0.5;exitDx=0;exitDy=0;entryX=0;entryY=0.5;entryDx=0;entryDy=0;dashed=1;" edge="1" parent="1" source="CD2pwI9OwR-Pnxx260fM-100" target="CD2pwI9OwR-Pnxx260fM-119">
          <mxGeometry width="50" height="50" relative="1" as="geometry">
            <mxPoint x="1050" y="1080" as="sourcePoint" />
            <mxPoint x="1165" y="1170" as="targetPoint" />
          </mxGeometry>
        </mxCell>
        <mxCell id="CD2pwI9OwR-Pnxx260fM-115" value="&amp;lt;&amp;lt;include&amp;gt;&amp;gt;" style="edgeLabel;html=1;align=center;verticalAlign=middle;resizable=0;points=[];" vertex="1" connectable="0" parent="CD2pwI9OwR-Pnxx260fM-111">
          <mxGeometry x="-0.0716" y="-1" relative="1" as="geometry">
            <mxPoint as="offset" />
          </mxGeometry>
        </mxCell>
        <mxCell id="CD2pwI9OwR-Pnxx260fM-116" value="" style="endArrow=classic;html=1;rounded=0;entryX=0;entryY=0.5;entryDx=0;entryDy=0;dashed=1;exitX=1;exitY=0.5;exitDx=0;exitDy=0;" edge="1" parent="1" source="CD2pwI9OwR-Pnxx260fM-101" target="CD2pwI9OwR-Pnxx260fM-109">
          <mxGeometry width="50" height="50" relative="1" as="geometry">
            <mxPoint x="1050" y="1170" as="sourcePoint" />
            <mxPoint x="1165" y="1170" as="targetPoint" />
          </mxGeometry>
        </mxCell>
        <mxCell id="CD2pwI9OwR-Pnxx260fM-117" value="&amp;lt;&amp;lt;include&amp;gt;&amp;gt;" style="edgeLabel;html=1;align=center;verticalAlign=middle;resizable=0;points=[];" vertex="1" connectable="0" parent="CD2pwI9OwR-Pnxx260fM-116">
          <mxGeometry x="-0.0716" y="-1" relative="1" as="geometry">
            <mxPoint as="offset" />
          </mxGeometry>
        </mxCell>
        <mxCell id="CD2pwI9OwR-Pnxx260fM-119" value="Update budget" style="ellipse;whiteSpace=wrap;html=1;" vertex="1" parent="1">
          <mxGeometry x="1155" y="1040" width="120" height="80" as="geometry" />
        </mxCell>
        <mxCell id="CD2pwI9OwR-Pnxx260fM-120" value="" style="endArrow=classic;html=1;rounded=0;exitX=1;exitY=0.5;exitDx=0;exitDy=0;entryX=0;entryY=0.5;entryDx=0;entryDy=0;dashed=1;" edge="1" parent="1" source="CD2pwI9OwR-Pnxx260fM-119" target="CD2pwI9OwR-Pnxx260fM-109">
          <mxGeometry width="50" height="50" relative="1" as="geometry">
            <mxPoint x="1050" y="1170" as="sourcePoint" />
            <mxPoint x="1165" y="1090" as="targetPoint" />
          </mxGeometry>
        </mxCell>
        <mxCell id="CD2pwI9OwR-Pnxx260fM-121" value="&amp;lt;&amp;lt;include&amp;gt;&amp;gt;" style="edgeLabel;html=1;align=center;verticalAlign=middle;resizable=0;points=[];" vertex="1" connectable="0" parent="CD2pwI9OwR-Pnxx260fM-120">
          <mxGeometry x="-0.0716" y="-1" relative="1" as="geometry">
            <mxPoint as="offset" />
          </mxGeometry>
        </mxCell>
        <mxCell id="CD2pwI9OwR-Pnxx260fM-122" value="Create transaction" style="ellipse;whiteSpace=wrap;html=1;" vertex="1" parent="1">
          <mxGeometry x="440" y="560" width="120" height="80" as="geometry" />
        </mxCell>
        <mxCell id="CD2pwI9OwR-Pnxx260fM-127" style="edgeStyle=orthogonalEdgeStyle;rounded=0;orthogonalLoop=1;jettySize=auto;html=1;exitX=1;exitY=0.5;exitDx=0;exitDy=0;entryX=0;entryY=0.5;entryDx=0;entryDy=0;dashed=1;" edge="1" parent="1" source="CD2pwI9OwR-Pnxx260fM-126" target="CD2pwI9OwR-Pnxx260fM-39">
          <mxGeometry relative="1" as="geometry" />
        </mxCell>
        <mxCell id="CD2pwI9OwR-Pnxx260fM-128" value="&amp;lt;&amp;lt;include&amp;gt;&amp;gt;" style="edgeLabel;html=1;align=center;verticalAlign=middle;resizable=0;points=[];" vertex="1" connectable="0" parent="CD2pwI9OwR-Pnxx260fM-127">
          <mxGeometry x="0.0307" y="3" relative="1" as="geometry">
            <mxPoint as="offset" />
          </mxGeometry>
        </mxCell>
        <mxCell id="CD2pwI9OwR-Pnxx260fM-126" value="Choose the specific budget" style="ellipse;whiteSpace=wrap;html=1;" vertex="1" parent="1">
          <mxGeometry x="1360" y="560" width="120" height="80" as="geometry" />
        </mxCell>
      </root>
    </mxGraphModel>
  </diagram>
</mxfile>
